<svg id="Layer_1" data-name="Layer 1" xmlns="http://www.w3.org/2000/svg" viewBox="0 0 98.37 97.71"><title>icon</title><path d="M18.44.12H79.92a18.27,18.27,0,0,1,18.32,18.2V79.38a18.27,18.27,0,0,1-18.32,18.2H18.44A18.27,18.27,0,0,1,.12,79.38V18.32A18.27,18.27,0,0,1,18.44.12Z" transform="translate(0 0.01)" style="fill:#262626;stroke:#000;stroke-miterlimit:10;stroke-width:0.25px"/><path d="M65,48.58a4.27,4.27,0,0,0-2.12.48A5.06,5.06,0,0,0,58.82,47a4.59,4.59,0,0,0-2.33.62,5.06,5.06,0,0,0-3.89-1.85,6.67,6.67,0,0,0-1.17.14V34.29a5.13,5.13,0,0,0-10.25,0V55.82l-2.46-3.76a4.47,4.47,0,0,0-3.21-2,5.43,5.43,0,0,0-3.69.82A5.69,5.69,0,0,0,29.56,54a4.67,4.67,0,0,0,.55,3.69c.07.13,10.25,15.51,12,18.11A13.53,13.53,0,0,0,52.8,81.25h4A13.09,13.09,0,0,0,69.89,68.33V53.7A4.85,4.85,0,0,0,65,48.58Zm2,19.54v.28a10.24,10.24,0,0,1-10.25,10h-4a10.79,10.79,0,0,1-8.27-4.23c-1.78-2.6-11.89-18-12-18.12a1.59,1.59,0,0,1-.2-1.36,2.19,2.19,0,0,1,1-1.37A2.5,2.5,0,0,1,34.76,53h.34a1.67,1.67,0,0,1,1.16.68l5.2,7.86a1.52,1.52,0,0,0,1.64.62,1.48,1.48,0,0,0,1-1.44V34.29a2.19,2.19,0,0,1,4.38,0V55.21a1.44,1.44,0,0,0,1.43,1.43,1.49,1.49,0,0,0,1.44-1.43V49a2.25,2.25,0,0,1,1.16-.35,2.14,2.14,0,0,1,2,1.37v5.54A1.44,1.44,0,0,0,56,57a1.48,1.48,0,0,0,1.43-1.43v-5.2a2.35,2.35,0,0,1,1.3-.47,2.12,2.12,0,0,1,2,1.5v4.85a1.44,1.44,0,1,0,2.87,0V51.86a2,2,0,0,1,1.23-.41,2,2,0,0,1,2,2.18V68.12Z" transform="translate(0 0.01)" style="fill:#ff3644"/><path d="M46.1,25.41A1.45,1.45,0,0,0,47.54,24V17.89a1.45,1.45,0,0,0-1.44-1.44,1.49,1.49,0,0,0-1.43,1.44V24A1.4,1.4,0,0,0,46.1,25.41Z" transform="translate(0 0.01)" style="fill:#ff3644"/><path d="M37.9,27.94a1.55,1.55,0,0,0,1,.41,1.51,1.51,0,0,0,1-.41,1.48,1.48,0,0,0,0-2.05l-4.3-4.31a1.45,1.45,0,1,0-2,2.05Z" transform="translate(0 0.01)" style="fill:#ff3644"/><path d="M36,35.52a1.44,1.44,0,0,0,1.43-1.43A1.49,1.49,0,0,0,36,32.65H29.91a1.45,1.45,0,0,0-1.44,1.44,1.49,1.49,0,0,0,1.44,1.43Z" transform="translate(0 0.01)" style="fill:#ff3644"/><path d="M54.72,34a1.44,1.44,0,0,0,1.43,1.43h6.08A1.44,1.44,0,0,0,63.67,34a1.49,1.49,0,0,0-1.44-1.44H56.15A1.44,1.44,0,0,0,54.72,34Z" transform="translate(0 0.01)" style="fill:#ff3644"/><path d="M53.21,28.35a1.55,1.55,0,0,0,1-.41l4.3-4.31a1.45,1.45,0,1,0-2-2.05l-4.3,4.31a1.48,1.48,0,0,0,0,2.05A1.51,1.51,0,0,0,53.21,28.35Z" transform="translate(0 0.01)" style="fill:#ff3644"/></svg>