<?xml version="1.0" encoding="utf-8"?>
<!-- Generator: Adobe Illustrator 23.0.2, SVG Export Plug-In . SVG Version: 6.00 Build 0)  -->
<svg version="1.1" id="Layer_1" xmlns="http://www.w3.org/2000/svg" xmlns:xlink="http://www.w3.org/1999/xlink" x="0px" y="0px"
	 viewBox="0 0 59.3 60.7" style="enable-background:new 0 0 59.3 60.7;" xml:space="preserve">
<title>clickandcollect-grey</title>
<g>
	<path d="M44,30.1c-0.7,0-1.4,0.1-1.9,0.4c-0.9-1.2-2.2-1.9-3.7-1.9c-0.7,0-1.5,0.2-2.1,0.6c-0.9-1.1-2.2-1.7-3.5-1.7
		c-0.4,0-0.7,0.1-1.1,0.1V17.2c0-2.5-2.1-4.6-4.6-4.6s-4.6,2.1-4.6,4.6v19.5l-2.2-3.4c-0.6-1-1.7-1.6-2.9-1.8
		c-1.2-0.2-2.4,0.1-3.3,0.7c-1,0.7-1.7,1.7-2,2.8c-0.3,1.2-0.1,2.4,0.5,3.3c0.1,0.1,9.3,14.1,10.9,16.4c2,2.9,5.9,5,9.7,5h3.6
		c6.5,0,11.9-5.3,11.9-11.7V34.7C48.5,32.1,46.6,30.1,44,30.1z M45.8,47.8v0.2c-0.1,5-4.2,9.1-9.3,9.1h-3.6c-3.2,0-6.3-2-7.5-3.8
		C23.8,51,14.7,37,14.6,36.9c-0.2-0.4-0.3-0.8-0.2-1.2c0.1-0.5,0.4-0.9,0.9-1.2c0.4-0.2,0.8-0.4,1.2-0.4c0.1,0,0.2,0,0.3,0
		c0.4,0.1,0.9,0.3,1.1,0.6l4.7,7.1c0.3,0.5,0.9,0.7,1.5,0.6c0.6-0.2,0.9-0.7,0.9-1.3V17.2c0-1.1,0.9-2,2-2c1.1,0,2,0.9,2,2v19
		c0,0.7,0.6,1.3,1.3,1.3c0.7,0,1.3-0.6,1.3-1.3v-5.6c0.3-0.2,0.7-0.3,1.1-0.3c0.8,0,1.5,0.5,1.8,1.2v5c0,0.7,0.6,1.3,1.3,1.3
		s1.3-0.6,1.3-1.3v-4.7c0.4-0.2,0.7-0.4,1.2-0.4c0.9,0,1.6,0.6,1.9,1.4V37c0,0.7,0.6,1.3,1.3,1.3c0.7,0,1.3-0.6,1.3-1.3v-4
		c0.3-0.2,0.7-0.4,1.1-0.4c1.2,0,1.8,1,1.8,2v13.1H45.8z"/>
	<path d="M26.9,9.1c0.7,0,1.3-0.6,1.3-1.3V2.3c0-0.7-0.6-1.3-1.3-1.3c-0.7,0-1.3,0.6-1.3,1.3v5.5C25.5,8.5,26.1,9.1,26.9,9.1z"/>
	<path d="M19.4,11.4c0.2,0.2,0.6,0.4,0.9,0.4c0.3,0,0.7-0.1,0.9-0.4c0.5-0.5,0.5-1.4,0-1.9l-3.9-3.9c-0.5-0.5-1.4-0.5-1.9,0
		C15,6.1,15,7,15.5,7.5L19.4,11.4z"/>
	<path d="M17.7,18.3c0.7,0,1.3-0.6,1.3-1.3c0-0.7-0.6-1.3-1.3-1.3h-5.5c-0.7,0-1.3,0.6-1.3,1.3c0,0.7,0.6,1.3,1.3,1.3H17.7z"/>
	<path d="M34.7,16.9c0,0.7,0.6,1.3,1.3,1.3h5.5c0.7,0,1.3-0.6,1.3-1.3c0-0.7-0.6-1.3-1.3-1.3H36C35.3,15.6,34.7,16.2,34.7,16.9z"/>
	<path d="M33.3,11.8c0.3,0,0.7-0.1,0.9-0.4l3.9-3.9c0.5-0.5,0.5-1.4,0-1.9c-0.5-0.5-1.4-0.5-1.9,0l-3.9,3.9c-0.5,0.5-0.5,1.4,0,1.9
		C32.6,11.6,33,11.8,33.3,11.8z"/>
</g>
</svg>
